<?xml version="1.0" encoding="UTF-8"?>
<svg id="Layer_1" data-name="Layer 1" xmlns="http://www.w3.org/2000/svg" viewBox="0 0 1024 1024">
  <defs>
    <style>
      .cls-1 {
        fill: #231f20;
      }
    </style>
  </defs>
  <path class="cls-1" d="M627.76,532.33c-2.36-10.37,3.91-20.78,14.17-23.59,49.38-13.53,90.08-53.72,104.14-103.02,22.12-77.5-16.93-159.35-96.72-185.49-74.72-24.48-152.49,14.29-182.54,84.23-4.2,9.79-15.41,14.46-25.38,10.72-11.56-4.34-23.2-8-35.34-11.07s-18.17-15.57-13.68-26.77c25.53-63.7,78.82-113.26,145.58-133.07,43.38-12.87,89.86-12.85,132.17-.05,133.23,40.3,198.27,188.62,140.09,314.5-29.01,62.78-84.52,109.83-151.66,126.69-11.79,2.96-23.41-5.19-24.77-17.27s-3.39-24.01-6.07-35.82Z"/>
  <g>
    <path class="cls-1" d="M431.11,832.41c9.48,10.55,5.14,27.4-8.23,32.14-106.46,37.77-225.36,5.93-301.27-78.8-40.06-44.72-64.87-100.64-70.46-160.87-10.03-108.04,43.75-212.95,136.61-268.45,89.27-53.36,200.33-51.8,288.5.57,12.41,7.37,13.21,24.97,1.53,33.45-68.04,49.41-109.34,117.42-121.85,202.93-11.24,86.54,16.02,173.21,75.16,239.03Z"/>
    <path class="cls-1" d="M698.42,834.97c85.22-18.08,149.24-87.52,162.41-172.84,8.36-54.1-6.52-108.84-38.41-152.88-4.56-6.3-5.06-14.67-1.28-21.46,5.13-9.21,9.65-18.6,13.76-28.46,5.74-13.78,23.9-16.79,33.66-5.49,46.68,54.03,70.08,124.92,65.29,196.86-4.23,63.5-31.36,123.19-73.11,168.83-108.05,118.13-290.88,121.26-403.23,7.51-59.47-60.21-89.49-143.18-78.7-229.83,19.97-160.4,177.96-270.83,333.56-236.71,10.55,2.31,17.43,12.46,15.55,23.09-2.06,11.58-5.57,22.91-10.67,33.68-3.9,8.22-12.84,12.78-21.79,11.1-42.98-8.06-87.23-3.15-128.3,16.1,0,0,0,0,0,0,17.47,28.98,31.28,58.78,38.54,91.97,20.81,95.09-6,191.27-75,260.84,47.88,36.7,108.07,50.36,167.73,37.7ZM511.19,484.02c-73.15,69.59-84.59,182.12-26.49,265.18,68.62-73.45,79.21-179.73,26.49-265.18Z"/>
  </g>
</svg>